<?xml version="1.0" encoding="utf-8"?>
<!-- Generator: Adobe Illustrator 22.1.0, SVG Export Plug-In . SVG Version: 6.00 Build 0)  -->
<svg version="1.1" id="Layer_1" xmlns="http://www.w3.org/2000/svg" xmlns:xlink="http://www.w3.org/1999/xlink" x="0px" y="0px"
	 viewBox="0 0 835.7 924.3" style="enable-background:new 0 0 835.7 924.3;" xml:space="preserve">
<style type="text/css">
	.st0{fill:#5689EF;}
	.st1{fill:#B3CFFB;}
</style>
<g>
	<path class="st0" d="M698,8.4c10.4,4.6,21,8.7,31.1,14C852.8,86.9,872.9,255,767.8,346.7c-5.5,4.8-6.6,8.5-4.6,15.6
		c26.5,91.9-25.4,188.2-117,216.8c-8.1,2.5-10.9,6.5-12.6,14.3c-17.8,83.9-36.1,167.8-54,251.7c-4.8,22.7-16.3,40.2-36.2,52.4
		c-10.5,6.4-20.7,13.5-31.2,20c-20.4,12.7-43.2,7.6-56.4-12.6c-7.3-11.1-14.4-22.3-21.6-33.5c-14-21.9-9.2-44.2,12.6-58.4
		c3.6-2.3,7.7-3.8,12.4-6c-10-15-19.1-27.9-15.2-45.2c3.8-17.1,17-24.9,30.9-33.5c-8.8-13.3-18-26.1-14.3-43.5
		c3.8-17.4,17.3-25.3,31.6-34.2c-26.6-29.4-21.7-62.4-12-95.3c-17.8,0-34.3,0.6-50.8-0.2c-23.5-1.2-45.4-8.7-65.9-19.9
		c-5.3-2.9-9-2.6-14,0.7c-73,47.4-146.3,94.4-219.3,141.8c-19.5,12.7-40.2,16.4-62.7,11.2c-11.7-2.7-23.6-4.9-35.3-7.7
		C9,675.5-3.7,655.8,1,632.3c2.7-13.3,5.6-26.6,8.6-39.8c5.5-24.5,25.2-37.1,49.9-32c4.2,0.9,8.3,1.8,13.3,2.9
		c3.7-15.7,6.3-31.1,20.7-40.5c14.5-9.5,29.5-6.3,46-2.1c5.3-39.2,26.3-55.4,66.6-42.4c1.2-5.5,2.2-10.2,3.2-14.9
		c4.2-19.4,14.9-34.3,31.3-45.2c8-5.3,15.9-10.8,24.2-15.4c5.1-2.9,6.3-6.3,5.9-11.9c-5.6-83.3,45.2-157.9,124.9-182
		c54-16.3,104.8-7.9,152.1,22.8c3.4,2.2,8.5,3.8,12.4,3.2c75.6-11.1,135.6,14.3,180.2,76.3c0.7,1,1.5,2,2.7,3.6
		c16-13.3,27.9-29.4,37-47.6c39.8-80,4-178.9-77.3-214.3C619.4,17,524,56.1,491.3,140c-2.9,7.4-4.8,15.3-7.1,22.9
		c-3.8,12.9-13.3,19-24.9,16c-11.1-2.9-16.4-12.8-13.8-25.4C464.1,64.4,551-3.2,642.5,0.1c6.4,0.2,12.9,0.3,19.3,0.5
		C673.8,3.2,685.9,5.8,698,8.4z M726.2,375.1c-3.6,1.5-6.4,2.9-9.3,3.7c-17.1,4.9-34.2,10.2-51.6,14.1c-6.8,1.5-11.1,3.5-14.8,9.8
		c-16.7,27.5-52.5,36-80.2,19.5c-27.5-16.4-37.1-52.1-21.4-79.9c15.7-27.9,51-38.2,79.4-23.3c14.7,7.7,23.6,20.2,30.1,36.8
		c17.5-5.5,34.4-10.9,51.4-16.2c-0.9-2.7-1-3.7-1.5-4.4c-1.3-2.1-2.6-4.2-4.1-6.1c-35-45.3-81.1-65.2-137.4-54.5
		c-57,10.8-94.5,46.3-108.4,102.6c-13.6,54.8,2.1,102.7,46,138.5c16.7,13.6,22.3,26.4,15.1,45.7c-0.3,0.9-0.4,1.8-0.6,2.7
		c-9.9,47.4-12.5,37,13.9,77.9c9.9,15.4,7.8,24.5-7.8,34.6c-8.4,5.5-16.8,10.9-26.3,17c6.7,9.9,12.8,18.4,18.5,27.2
		c8.4,13.1,6.3,23-6.7,31.4c-9.1,5.9-18.4,11.3-27.2,16.7c0.4,1.9,0.4,2.6,0.7,3.1c5.6,8.9,11.3,17.7,16.8,26.6
		c7.8,12.5,5.7,22.7-6.7,30.8c-9.3,6-18.8,11.7-26.4,16.4c8.5,13.4,16.2,25.6,24.1,38.2c9.1-5.9,18.7-12.7,28.8-18.6
		c11.4-6.7,17.6-16.2,20.3-29.2c18.9-89.1,38.4-178,57.2-267.1c2.9-13.8,9.2-21.4,23.7-24.2c28.7-5.5,53.2-19.7,72.6-41.6
		C727.1,466.4,737.1,423.8,726.2,375.1z M449.9,516.8c-31.4-44.8-42.5-92.5-31.2-144.4c11.2-51.9,41.4-90.5,87.7-118.2
		c-17.8-8.8-35.3-12.9-53.5-13.3c-89.3-2-154.6,72.1-141.5,160.4c1.7,11.5-1.4,19.7-11.4,25.8c-12.6,7.7-25.7,15-37.1,24.4
		c-6.7,5.5-11.9,13.9-15.2,22c-3.7,9-4.5,19.2-6.6,28.8c-3.4,15.5-11.9,20.9-27.6,17.6c-10.4-2.2-20.9-4.5-31.7-6.8
		c-2.5,11.7-4.7,21.9-7,32.2c-3.4,15.1-11.9,20.7-26.9,17.6c-10.5-2.1-21-4.5-32.5-7c-2.4,11.2-4.5,21.4-6.8,31.6
		c-3.6,16-12.1,21.5-28.3,18.1c-10.2-2.1-20.3-4.4-30.7-6.6c-3.2,15-6.2,28.7-9.3,43.2c12.4,2.7,24.2,4.9,35.8,7.8
		c12.5,3.2,23.4,0.8,34.2-6.2c76.4-49.6,153-98.7,229.3-148.4c11.9-7.8,21.6-8.6,33.7-0.4C395.7,510.2,421,517,449.9,516.8z
		 M596.3,390.4c10.8,2.5,21.7-4.3,23.8-15c2.1-10.3-4.7-20.9-14.9-23.2c-10.6-2.5-21.7,4.6-23.9,15.1
		C579.1,377.6,585.8,388,596.3,390.4z"/>
	<path class="st1" d="M726.2,375.1c10.9,48.6,0.9,91.3-31.8,128c-19.4,21.9-43.9,36-72.6,41.6c-14.4,2.8-20.8,10.4-23.7,24.2
		c-18.9,89.1-38.3,178-57.2,267.1c-2.8,13-8.9,22.5-20.3,29.2c-10.1,5.9-19.7,12.7-28.8,18.6c-8-12.6-15.6-24.7-24.1-38.2
		c7.6-4.7,17.2-10.3,26.4-16.4c12.4-8.1,14.6-18.2,6.7-30.8c-5.6-8.9-11.3-17.7-16.8-26.6c-0.3-0.5-0.3-1.2-0.7-3.1
		c8.8-5.4,18.1-10.8,27.2-16.7c12.9-8.4,15-18.3,6.7-31.4c-5.6-8.8-11.7-17.4-18.5-27.2c9.4-6.1,17.9-11.6,26.3-17
		c15.6-10.2,17.7-19.3,7.8-34.6C506.4,601,509,611.4,518.9,564c0.2-0.9,0.3-1.9,0.6-2.7c7.3-19.3,1.6-32.1-15.1-45.7
		c-43.8-35.8-59.5-83.7-46-138.5c13.9-56.3,51.4-91.8,108.4-102.6c56.3-10.7,102.4,9.2,137.4,54.5c1.5,1.9,2.8,4,4.1,6.1
		c0.5,0.7,0.6,1.7,1.5,4.4c-17,5.4-33.9,10.7-51.4,16.2c-6.5-16.6-15.4-29.1-30.1-36.8c-28.4-14.9-63.7-4.7-79.4,23.3
		c-15.7,27.9-6.2,63.6,21.4,79.9c27.6,16.4,63.5,8,80.2-19.5c3.8-6.3,8.1-8.2,14.8-9.8c17.4-3.9,34.4-9.3,51.6-14.1
		C719.9,378,722.6,376.6,726.2,375.1z"/>
	<path class="st1" d="M449.9,516.8c-28.9,0.2-54.3-6.6-76.7-21.8c-12.1-8.2-21.8-7.4-33.7,0.4c-76.3,49.7-153,98.8-229.3,148.4
		c-10.8,7-21.7,9.4-34.2,6.2c-11.6-3-23.4-5.1-35.8-7.8c3.1-14.5,6.1-28.2,9.3-43.2c10.4,2.2,20.5,4.5,30.7,6.6
		c16.2,3.3,24.7-2.1,28.3-18.1c2.3-10.2,4.4-20.4,6.8-31.6c11.5,2.5,22,4.8,32.5,7c15,3.1,23.5-2.5,26.9-17.6
		c2.3-10.2,4.4-20.5,7-32.2c10.8,2.3,21.2,4.6,31.7,6.8c15.8,3.3,24.2-2.1,27.6-17.6c2.1-9.6,2.9-19.8,6.6-28.8
		c3.3-8.1,8.5-16.5,15.2-22c11.4-9.3,24.5-16.7,37.1-24.4c10-6.1,13.2-14.3,11.4-25.8c-13.2-88.3,52.2-162.4,141.5-160.4
		c18.3,0.4,35.8,4.5,53.5,13.3c-46.3,27.6-76.4,66.2-87.7,118.2C407.5,424.3,418.6,472,449.9,516.8z"/>
	<path class="st1" d="M596.3,390.4c-10.4-2.4-17.1-12.8-15-23.1c2.2-10.6,13.3-17.6,23.9-15.1c10.2,2.4,17,12.9,14.9,23.2
		C617.9,386,607,392.9,596.3,390.4z"/>
</g>
</svg>
