<?xml version="1.0" encoding="utf-8"?>
<!-- Generator: Adobe Illustrator 22.1.0, SVG Export Plug-In . SVG Version: 6.00 Build 0)  -->
<svg version="1.1" id="Layer_1" xmlns="http://www.w3.org/2000/svg" xmlns:xlink="http://www.w3.org/1999/xlink" x="0px" y="0px"
	 viewBox="0 0 50 50" style="enable-background:new 0 0 50 50;" xml:space="preserve">
<style type="text/css">
	.st0{fill:#B3CFFB;}
	.st1{fill:#3C74F6;}
</style>
<title>Droplets</title>
<path class="st0" d="M25,18.2c7.3,0,13.4-3,13.4-6.6c0-3.6-6.2-6.7-13.4-6.7c-7.3,0-13.4,3.1-13.4,6.7C11.6,15.1,17.8,18.2,25,18.2z
	"/>
<path class="st0" d="M11.6,34.2v4.4c0,3.6,6.2,6.6,13.4,6.6c7.3,0,13.4-3,13.4-6.6v-4.4c-2.7,2.6-7.7,4.2-13.4,4.2
	C19.3,38.4,14.3,36.8,11.6,34.2z"/>
<path class="st0" d="M11.6,25.2v4.2c0,3.6,6.2,6.6,13.4,6.6c7.3,0,13.4-3,13.4-6.6v-4.2c-2.7,2.6-7.7,4.2-13.4,4.2
	C19.3,29.5,14.3,27.8,11.6,25.2z"/>
<path class="st0" d="M11.6,16.2v4.3c0,3.6,6.2,6.6,13.4,6.6c7.3,0,13.4-3,13.4-6.6v-4.3c-2.7,2.6-7.7,4.3-13.4,4.3
	C19.3,20.5,14.3,18.8,11.6,16.2z"/>
<path class="st1" d="M25,2.6c-8.8,0-15.7,3.9-15.7,9v9v0.1v8.8v0.1v9c0,5,6.9,8.8,15.7,8.8c8.8,0,15.7-3.9,15.7-8.8v-9v-0.1v-8.8
	v-0.1v-9C40.7,6.5,33.8,2.6,25,2.6z M25,4.8c7.3,0,13.4,3.1,13.4,6.7c0,3.6-6.2,6.6-13.4,6.6c-7.3,0-13.4-3-13.4-6.6
	C11.6,7.9,17.8,4.8,25,4.8z M38.5,38.6c0,3.6-6.2,6.6-13.4,6.6c-7.3,0-13.4-3-13.4-6.6v-4.4c2.7,2.6,7.7,4.2,13.4,4.2
	c5.8,0,10.7-1.7,13.4-4.2V38.6z M38.5,29.5c0,3.6-6.2,6.6-13.4,6.6c-7.3,0-13.4-3-13.4-6.6v-4.2c2.7,2.6,7.7,4.2,13.4,4.2
	c5.8,0,10.7-1.7,13.4-4.2V29.5z M38.5,20.5c0,3.6-6.2,6.6-13.4,6.6c-7.3,0-13.4-3-13.4-6.6v-4.3c2.7,2.6,7.7,4.3,13.4,4.3
	c5.8,0,10.7-1.7,13.4-4.3V20.5z"/>
</svg>
