<?xml version="1.0" encoding="utf-8"?>
<!-- Generator: Adobe Illustrator 22.1.0, SVG Export Plug-In . SVG Version: 6.00 Build 0)  -->
<svg version="1.1" id="Layer_1" xmlns="http://www.w3.org/2000/svg" xmlns:xlink="http://www.w3.org/1999/xlink" x="0px" y="0px"
	 viewBox="0 0 50 50" style="enable-background:new 0 0 50 50;" xml:space="preserve">
<style type="text/css">
	.st0{fill:#B3CFFB;}
	.st1{fill:#3C74F6;}
</style>
<title>Droplets</title>
<g>
	<path class="st0" d="M25,4.2C25,4.2,8.4,19,8.4,28.7c0,9.7,7.4,17.6,16.6,17.6c9.1,0,16.6-7.9,16.6-17.6C41.6,19,25,4.2,25,4.2z"/>
	<path class="st1" d="M25,47.4c-9.8,0-17.7-8.4-17.7-18.7c0-10.1,16.3-24.7,17-25.4L25,2.6l0.8,0.7c0.7,0.6,17,15.2,17,25.4
		C42.7,39,34.8,47.4,25,47.4z M25,5.8c-3.2,3-15.4,15-15.4,22.9c0,9,6.9,16.4,15.4,16.4s15.4-7.4,15.4-16.4
		C40.4,20.7,28.2,8.8,25,5.8z"/>
</g>
</svg>
