<?xml version="1.0" encoding="utf-8"?>
<!-- Generator: Adobe Illustrator 22.1.0, SVG Export Plug-In . SVG Version: 6.00 Build 0)  -->
<svg version="1.1" id="Layer_1" xmlns="http://www.w3.org/2000/svg" xmlns:xlink="http://www.w3.org/1999/xlink" x="0px" y="0px"
	 viewBox="0 0 1000 1000" style="enable-background:new 0 0 1000 1000;" xml:space="preserve">
<style type="text/css">
	.st0{fill:#B3CFFB;}
	.st1{fill:none;}
	.st2{fill:#5689EF;}
</style>
<rect x="79.8" y="181" class="st0" width="703.5" height="576"/>
<g>
	<path class="st1" d="M768.5,739.7c0.4,0,0.8,0,1.2,0c0-181.2,0-361.3,0-541.3c-0.4,0-0.8,0-1.2,0V739.7z"/>
	<path class="st2" d="M810.4,545.7c0-115.3,0-230.6,0-345.9c0-18.7-8.7-32.4-24.8-37.9c-5.3-1.8-11.2-2.3-16.8-2.4
		c-4.4-0.1-8.8-0.1-13.3-0.1c-13.1,0-30.8,0-49,0c-0.5,0-1,0-1.4,0c0,0,0,0,0,0c-9.5,0-19.2,0-28.3,0c-27.9,0-51,0-52.2,0
		c-174.1,0-348.2,0-522.3,0c-6,0-12.1-0.3-17.9,0.6c-19.1,3.2-31.2,18.3-31.2,39c-0.1,95.3-0.1,190.7-0.1,286c0,35.4,0,70.8,0,106.2
		c0,0.6,0,7.9,0,18.5c0,16.1-0.1,39.8-0.1,60.2c0.1,0,0.1,0,0.2,0c0,22,0.9,42.5-0.2,63c-1.5,27.6,19.4,43.1,43,43
		c224.3-0.3,448.7-0.2,673-0.2c26,0,41.5-15.7,41.5-41.7C810.4,671.3,810.4,608.5,810.4,545.7z M769.7,739.7c-0.4,0-0.8,0-1.2,0
		c-224.8,0-449.2,0-674.1,0c0-180.6,0-360.6,0-541.3c224.6,0,449,0,674.1,0c0.4,0,0.8,0,1.2,0C769.7,378.4,769.7,558.5,769.7,739.7z
		"/>
</g>
<rect x="187.1" y="287.6" class="st0" width="703.5" height="576"/>
<g>
	<path class="st2" d="M874.4,842c0.4,0,0.8,0,1.2,0c0-181.2,0-361.3,0-541.3c-0.4,0-0.8,0-1.2,0V842z"/>
	<path class="st2" d="M544.7,381.1l-7.3-6.4l-6.4,6.4c-6.4,6.4-154.9,139.4-154.9,231.5c0,93.9,72,170.4,161.3,170.4
		s161.3-76.6,162.2-170.4C699.7,519.6,551.1,386.6,544.7,381.1z"/>
	<path class="st2" d="M916.2,648.1c0-115.3,0-230.6,0-345.9c0-18.7-8.7-32.4-24.8-37.9c-5.3-1.8-11.2-2.3-16.8-2.4
		c-4.4-0.1-8.8-0.1-13.3-0.1c-13.1,0-30.8,0-49,0c-0.5,0-1,0-1.4,0c0,0,0,0,0,0c-9.5,0-19.2,0-28.3,0c-27.9,0-51,0-52.2,0
		c-174.1,0-348.2,0-522.3,0c-6,0-12.1-0.3-17.9,0.6c-19.1,3.2-31.2,18.3-31.2,39c-0.1,95.3-0.1,190.7-0.1,286c0,35.4,0,70.8,0,106.2
		c0,0.6,0,7.9,0,18.5c0,16.1-0.1,39.8-0.1,60.2c0.1,0,0.1,0,0.2,0c0,22,0.9,42.5-0.2,63c-1.5,27.6,19.4,43.1,43,43
		c224.3-0.3,448.7-0.2,673-0.2c26,0,41.5-15.7,41.5-41.7C916.2,773.6,916.2,710.9,916.2,648.1z M875.6,842c-0.4,0-0.8,0-1.2,0
		c-224.8,0-449.2,0-674.1,0c0-180.6,0-360.6,0-541.3c224.6,0,449,0,674.1,0c0.4,0,0.8,0,1.2,0C875.6,480.7,875.6,660.8,875.6,842z"
		/>
</g>
</svg>
