<?xml version="1.0" encoding="utf-8"?>
<!-- Generator: Adobe Illustrator 22.1.0, SVG Export Plug-In . SVG Version: 6.00 Build 0)  -->
<svg version="1.1" id="Layer_1" xmlns="http://www.w3.org/2000/svg" xmlns:xlink="http://www.w3.org/1999/xlink" x="0px" y="0px"
	 viewBox="0 0 1201.4 1201.4" style="enable-background:new 0 0 1201.4 1201.4;" xml:space="preserve">
<style type="text/css">
	.st0{fill:#404040;}
</style>
<path class="st0" d="M600,1201.4v-232c248,0,436-244,344-504c-36-96-112-172-208-208c-260-92-504,96-504,344H0
	c0-392,380-700,792-572c180,56,324,200,380,380C1300,821.4,992,1201.4,600,1201.4z"/>
<path class="st0" d="M600,969.4H368v-232h232V969.4z M368,1149.4H192v-180h176V1149.4z M192,969.4H40v-148h152V969.4z"/>
</svg>
