<?xml version="1.0" encoding="utf-8"?>
<!-- Generator: Adobe Illustrator 22.1.0, SVG Export Plug-In . SVG Version: 6.00 Build 0)  -->
<svg version="1.1" id="Layer_1" xmlns="http://www.w3.org/2000/svg" xmlns:xlink="http://www.w3.org/1999/xlink" x="0px" y="0px"
	 viewBox="0 0 50 50" style="enable-background:new 0 0 50 50;" xml:space="preserve">
<style type="text/css">
	.st0{fill:#B3CFFB;stroke:#5689EF;stroke-width:2.5;stroke-miterlimit:10;}
	.st1{fill:none;stroke:#5589EF;stroke-width:2;stroke-miterlimit:10;}
</style>
<g>
	<path class="st0" d="M35.9,20.2v-7.1c0-5.9-4.5-10.9-10.3-11.2c-6.2-0.3-11.4,4.7-11.4,10.9v7.4H3v24.2c0,2,1.6,3.5,3.5,3.5h36.9
		c2,0,3.5-1.6,3.5-3.5V20.2H35.9z M15.8,12.9c0-5.1,4.1-9.2,9.2-9.2s9.2,4.1,9.2,9.2v7.3H15.8V12.9z"/>
	<path class="st1" d="M20.5,41.5h8.9c1.6,0,2.9-1.3,2.9-2.9v-8.9c0-1.6-1.3-2.9-2.9-2.9h-8.9c-1.6,0-2.9,1.3-2.9,2.9v8.9
		C17.7,40.2,19,41.5,20.5,41.5z"/>
</g>
</svg>
