<?xml version="1.0" encoding="utf-8"?>
<!-- Generator: Adobe Illustrator 22.1.0, SVG Export Plug-In . SVG Version: 6.00 Build 0)  -->
<svg version="1.1" id="Layer_1" xmlns="http://www.w3.org/2000/svg" xmlns:xlink="http://www.w3.org/1999/xlink" x="0px" y="0px"
	 viewBox="0 0 854.3 695.3" style="enable-background:new 0 0 854.3 695.3;" xml:space="preserve">
<style type="text/css">
	.st0{fill:#B3CFFB;}
	.st1{fill:#5689EF;}
</style>
<rect x="32" y="29.1" class="st0" width="793.3" height="649.6"/>
<g>
	<path class="st1" d="M807.1,654.3c0.5,0,0.9,0,1.4,0c0-204.3,0-407.4,0-610.4c-0.5,0-0.9,0-1.4,0V654.3z"/>
	<path class="st1" d="M854.2,435.7c0-130,0-260,0-390.1c0-21.1-9.8-36.5-28-42.7c-6-2-12.6-2.6-18.9-2.7c-5-0.1-9.9-0.1-15-0.1
		c-14.8,0-34.7,0-55.3,0c-0.6,0-1.1,0-1.6,0l0,0c-10.7,0-21.7,0-31.9,0c-31.5,0-57.5,0-58.9,0c-196.3,0-392.7,0-589,0
		c-6.8,0-13.6-0.3-20.2,0.7C14,4.3,0.3,21.4,0.3,44.7C0.2,152.2,0.2,259.8,0.2,367.2c0,39.9,0,79.8,0,119.8c0,0.7,0,8.9,0,20.9
		c0,18.2-0.1,44.9-0.1,67.9c0.1,0,0.1,0,0.2,0c0,24.8,1,47.9-0.2,71c-1.7,31.1,21.9,48.6,48.5,48.5c252.9-0.3,506-0.2,758.9-0.2
		c29.3,0,46.8-17.7,46.8-47C854.2,577.2,854.2,506.5,854.2,435.7z M808.4,654.3c-0.5,0-0.9,0-1.4,0c-253.5,0-506.6,0-760.2,0
		c0-203.7,0-406.6,0-610.4c253.3,0,506.3,0,760.2,0c0.5,0,0.9,0,1.4,0C808.4,246.9,808.4,450,808.4,654.3z"/>
</g>
<g>
	<path class="st1" d="M827.6,411.8H679.4c-8.5,0-16.5,4.2-21.3,11.3l-43,63.6L491.7,31.6c-3-11.2-13.2-19-24.8-19
		c-0.1,0-0.3,0-0.4,0c-11.8,0.2-21.9,8.3-24.6,19.8L327.1,512.7L265.8,285c-2.7-10.1-11.4-17.6-21.8-18.9c-1-0.1-2-0.2-3.1-0.2
		c-9.3,0-18,5.1-22.6,13.4l-72.5,132.4H29.8C15.5,411.8,4,423.3,4,437.5v12.9c0,14.2,11.5,25.7,25.7,25.7h138.9
		c9.4,0,18.1-5.1,22.6-13.4l37.4-68.2l75.8,281.7c3,11.2,13.2,19,24.8,19c0.1,0,0.2,0,0.4,0c11.8-0.2,21.9-8.3,24.7-19.8
		l114.9-480.9L575,585c2.6,9.7,10.7,17,20.6,18.7c1.4,0.2,2.8,0.3,4.2,0.3c8.5,0,16.5-4.2,21.3-11.3l78.7-116.5h127.7
		c14.2,0,25.7-11.5,25.7-25.7v-12.9C853.3,423.3,841.8,411.8,827.6,411.8z"/>
</g>
</svg>
