<?xml version="1.0" encoding="utf-8"?>
<!-- Generator: Adobe Illustrator 22.1.0, SVG Export Plug-In . SVG Version: 6.00 Build 0)  -->
<svg version="1.1" id="Layer_1" xmlns="http://www.w3.org/2000/svg" xmlns:xlink="http://www.w3.org/1999/xlink" x="0px" y="0px"
	 viewBox="0 0 1000 1000" style="enable-background:new 0 0 1000 1000;" xml:space="preserve">
<style type="text/css">
	.st0{fill:#B3CFFB;}
	.st1{fill:#5689EF;}
</style>
<g>
	<path class="st0" d="M752.9,234L479.6,458.5c5,8.2,8.7,17.3,10.8,26.9L761,514.4c12.8-24.1,36.2-41.7,64-46.7l-34.9-233
		c-5.5,1-11.2,1.6-17,1.6C766.1,236.3,759.3,235.5,752.9,234z"/>
	<path class="st0" d="M202.5,511.5l109.3-16.4c3-27,17.9-50.4,39.3-64.9L260,215.9c-8.9,2.9-18.5,4.5-28.4,4.5c-1.3,0-2.6,0-3.9-0.1
		l-84.8,244.8C168.8,471.2,190.5,488.4,202.5,511.5z"/>
	<path class="st0" d="M488.6,532c-4.9,16-14.1,30.1-26.3,41L541,758c0.2,0,0.4,0,0.5,0c16.3,0,31.7,4.3,44.9,11.9l186.5-153.2
		c-13.4-15.3-21.8-35-22.5-56.8L488.6,532z"/>
	<path class="st0" d="M495.8,770.4l-75-176.4c-6.1,1.3-12.4,2-18.9,2c-37.4,0-69.5-22.6-83.3-54.9l-105.9,15.9
		c-0.9,23.9-11.1,45.5-27.1,61.1l280.3,180.7C473.5,787.2,483.8,777.4,495.8,770.4z"/>
	<path class="st0" d="M401.9,414.7c16,0,31,4.1,44,11.4l263.2-216.2c-11.3-11.2-19.6-25.4-23.8-41.3H313.5
		c-3.7,7.8-8.4,14.9-14.1,21.3l95.7,225.1C397.4,414.8,399.6,414.7,401.9,414.7z"/>
	<path class="st1" d="M872.6,471.9l-38.8-258.9c18.4-16.6,29.9-40.6,29.9-67.3c0-23.1-8.7-44.2-22.9-60.2C824.2,66.7,800,55,773,55
		s-51.2,11.8-67.8,30.5c-9.2,10.4-16.1,22.9-19.8,36.7H321.9c-1.1-13.3-5.1-25.7-11.2-36.7c-15.5-27.7-45.1-46.3-79.1-46.3
		c-34,0-63.6,18.7-79.1,46.3c-7.4,13.1-11.6,28.2-11.6,44.3c0,32.3,16.9,60.7,42.4,76.7l-90.4,261c-35.7,12.2-61.4,46-61.4,85.8
		c0,50.1,40.6,90.7,90.7,90.7c5.4,0,10.7-0.5,15.8-1.4L451,844.4c-0.1,1.4-0.1,2.8-0.1,4.2c0,18,5.3,34.8,14.3,49
		c16.1,25.1,44.3,41.7,76.3,41.7c32,0,60.2-16.6,76.3-41.7c9.1-14.1,14.3-30.9,14.3-49c0-16.8-4.6-32.5-12.5-46l194-159.3
		c8.6,2.7,17.8,4.2,27.4,4.2c50.1,0,90.7-40.6,90.7-90.7C931.7,517.9,907.1,484.7,872.6,471.9z M825,467.6
		c-27.8,5-51.2,22.6-64,46.7l-270.6-28.9c-2.2-9.6-5.9-18.7-10.8-26.9L752.9,234c6.5,1.5,13.2,2.3,20.2,2.3c5.8,0,11.5-0.6,17-1.6
		L825,467.6z M313.5,168.6h371.8c4.1,15.9,12.5,30,23.8,41.3L445.9,426.1c-13-7.2-28-11.4-44-11.4c-2.3,0-4.6,0.1-6.8,0.3
		l-95.7-225.1C305.1,183.5,309.8,176.4,313.5,168.6z M227.6,220.3c1.3,0.1,2.6,0.1,3.9,0.1c9.9,0,19.5-1.6,28.4-4.5l91.2,214.4
		c-21.4,14.5-36.3,37.9-39.3,64.9l-109.3,16.4c-12-23.1-33.7-40.3-59.7-46.4L227.6,220.3z M185.5,618.1c16-15.7,26.2-37.2,27.1-61.1
		l105.9-15.9c13.9,32.3,46,54.9,83.3,54.9c6.5,0,12.8-0.7,18.9-2l75,176.4c-12,7-22.3,16.8-29.9,28.4L185.5,618.1z M586.5,769.9
		c-13.2-7.6-28.6-11.9-44.9-11.9c-0.2,0-0.4,0-0.5,0l-78.7-185.1c12.2-10.9,21.4-25,26.3-41l261.8,28c0.7,21.7,9.1,41.5,22.5,56.8
		L586.5,769.9z"/>
</g>
</svg>
