<?xml version="1.0" encoding="utf-8"?>
<!-- Generator: Adobe Illustrator 22.1.0, SVG Export Plug-In . SVG Version: 6.00 Build 0)  -->
<svg version="1.1" id="Layer_1" xmlns="http://www.w3.org/2000/svg" xmlns:xlink="http://www.w3.org/1999/xlink" x="0px" y="0px"
	 viewBox="0 0 1000 1000" style="enable-background:new 0 0 1000 1000;" xml:space="preserve">
<style type="text/css">
	.st0{fill:#5689EF;}
	.st1{fill:#B3CFFB;}
</style>
<g>
	<path class="st0" d="M500,66.1C260.4,66.1,66.1,260.4,66.1,500c0,126.2,53.9,239.9,140,319.2l6.2-3.2c6.1-3.2,12.1-6.4,18-9.5
		c13.1-7,25.5-13.5,38.6-19.6c12.2-5.7,24.7-11,36.8-16.2c21.3-9,41.3-17.6,60.2-28.2c17.8-10,31.1-29.2,36.7-52.7
		c-6.1,10.6-14.4,19.1-24.1,24.6c-17.1,9.6-35.3,17.3-54.5,25.5c-10.9,4.6-22.2,9.4-33.3,14.6c-11.8,5.5-23.1,11.5-35,17.8
		c-5.3,2.8-10.7,5.7-16.3,8.6l-5.7,2.9C155.7,712,106.8,609,106.8,494.6c0-217.1,176-393.2,393.2-393.2s393.2,176,393.2,393.2
		c0,114.4-48.8,217.3-126.8,289.2l-5.9-3c-6.8-3.4-13.2-6.7-19.5-9.9c-13.4-6.9-26-13.3-38.8-19.4c-10.5-5-21.3-9.7-31.7-14.2
		c-19.7-8.6-38.2-16.7-55.5-26.8c-5.6-3.3-11-9.7-15.7-18.3c6.1,21.8,16.7,39.6,27.6,46c19.1,11.2,39.5,20.1,61.2,29.5
		c11.5,5,23.3,10.2,34.9,15.7c14.2,6.7,28.1,13.9,42.9,21.4c6.9,3.5,14,7.2,21.5,11l6.5,3.3c86-79.3,139.9-192.9,139.9-319.1
		C933.9,260.4,739.6,66.1,500,66.1z"/>
	<path class="st1" d="M390.1,615.5c-10.2-13.8-16.4-29.6-21.8-43.6l-0.1-0.3c-2.6-6.7-4.2-13.3-5.6-19.1c-3.4-14.3-4.9-18-11.9-21.6
		c-20.7-10.5-20.2-37.5-19.8-61.2c0-2.8,0.1-5.5,0.1-7.8c0-9,1.9-17,3.6-24c1.2-4.8,2.4-9.8,2.2-12.6c-0.9-13.3-2.6-26.7-4.5-40.8
		c-2.9-22.4-6-45.5-5.3-69.2c1.7-64.4,32-110.2,85.3-129c56.9-20.1,117.2-32.2,172.9,14.3c0.9,0.8,3.5,2.1,6.9,2.9
		c24.6,5.2,45.1,17,59.3,33.9c14.1,16.8,21.8,38.4,22.2,62.5c0.5,28.7-3.2,57.1-6.7,84.5c-1.9,14.8-3.9,30.1-5.1,44.8
		c-0.6,7.1,0.5,14.7,2.6,18.8c15.7,29.9,5.7,71.1-21.8,90c0,0-2.7,2-6.5,9.9c-3.9,8.3-7.5,16.8-11.2,25.9
		c-6.9,16.9-14.1,34.4-24.5,50.8c-6.3,9.9-9,34.6-2.2,62.7c0.4,1.6,0.8,3.1,1.2,4.6c4.7,8.5,10.1,15,15.7,18.3
		c17.3,10.1,35.8,18.2,55.5,26.8c10.4,4.5,21.1,9.2,31.7,14.2c12.8,6.1,25.5,12.6,38.8,19.4c6.3,3.2,12.7,6.5,19.5,9.9l5.9,3
		c77.9-71.8,126.8-174.8,126.8-289.2c0-217.1-176-393.2-393.2-393.2s-393.2,176-393.2,393.2c0,114.4,48.9,217.4,126.8,289.2l5.7-2.9
		c5.6-2.9,11-5.8,16.3-8.6c11.9-6.3,23.1-12.3,35-17.8c11.1-5.2,22.4-10,33.3-14.6c19.3-8.2,37.5-15.9,54.5-25.5
		c9.8-5.5,18-14,24.1-24.6c0.2-0.8,0.4-1.5,0.5-2.3C408.8,661.2,403.9,634.3,390.1,615.5z"/>
	<path class="st0" d="M500,27.2C238.9,27.2,27.2,238.9,27.2,500S238.9,972.8,500,972.8S972.8,761.1,972.8,500S761.1,27.2,500,27.2z
		 M794,819.1l27.7,14l-29.6,24.3c-46.3,38.1-97.1,66.8-150.7,85.3c-46.8,16.1-95.1,24.2-143.9,24.2c-4.3,0-8.6-0.1-12.9-0.2
		c-102.4-3-200.9-42-277.3-109.9L180,832.7l26.1-13.5C120,739.9,66.1,626.2,66.1,500C66.1,260.4,260.4,66.1,500,66.1
		S933.9,260.4,933.9,500C933.9,626.2,880,739.8,794,819.1z"/>
	<path class="st0" d="M766,804.8c-14.8-7.6-28.7-14.7-42.9-21.4c-11.6-5.5-23.5-10.7-34.9-15.7c-21.7-9.5-42.2-18.4-61.2-29.5
		c-11-6.4-21.6-24.2-27.6-46c-4.3-7.8-7.9-17.3-10.4-27.6c-6.2-25.5-3.7-47.9,2-56.9c9.4-14.9,15.9-30.7,22.2-46
		c3.4-8.2,6.6-16,10.1-23.5c3.4-7.2,5.8-9,5.9-9c24.9-17.1,33.9-54.5,19.7-81.6c-2-3.7-2.9-10.6-2.4-17.1
		c1.1-13.4,2.9-27.2,4.6-40.6c3.2-24.8,6.6-50.5,6.1-76.6c-0.4-21.8-7.3-41.4-20.1-56.7c-12.9-15.3-31.5-25.9-53.7-30.7
		c-3.1-0.7-5.4-1.9-6.2-2.6c-50.5-42.2-105.1-31.2-156.7-13c-48.3,17-75.7,58.5-77.3,116.9c-0.6,21.4,2.2,42.4,4.8,62.7
		c1.7,12.8,3.3,24.9,4,37c0.2,2.6-0.9,7.1-2,11.4c-1.5,6.4-3.3,13.6-3.3,21.7c0,2.1,0,4.5-0.1,7c-0.4,21.5-0.8,46,17.9,55.5
		c6.4,3.2,7.7,6.6,10.8,19.5c1.3,5.3,2.7,11.2,5.1,17.3l0.1,0.3c5,12.6,10.6,27,19.8,39.5c12.5,17,16.9,41.4,11.8,65.2
		c-2,9.2-5.3,17.8-9.6,25.3c-5.6,23.5-18.9,42.7-36.7,52.7c-18.8,10.6-38.9,19.1-60.2,28.2c-12.1,5.1-24.5,10.4-36.8,16.2
		c-13.1,6.1-25.5,12.7-38.6,19.6c-5.8,3.1-11.8,6.3-18,9.5l-6.2,3.2c77.3,71.2,180.5,114.7,293.9,114.7
		c113.4,0,216.7-43.5,294-114.8l-6.5-3.3C780,812,772.9,808.3,766,804.8z"/>
	<path class="st0" d="M400.4,599.3c-9.2-12.5-14.8-26.8-19.8-39.5l-0.1-0.3c-2.4-6.1-3.8-12.1-5.1-17.3c-3.1-13-4.5-16.3-10.8-19.5
		c-18.8-9.5-18.3-34-17.9-55.5c0-2.5,0.1-4.9,0.1-7c0-8.2,1.8-15.4,3.3-21.7c1.1-4.4,2.2-8.9,2-11.4c-0.8-12.1-2.4-24.2-4-37
		c-2.7-20.3-5.4-41.2-4.8-62.7c1.6-58.3,29-99.8,77.3-116.9c51.6-18.2,106.2-29.2,156.7,13c0.8,0.7,3.1,1.9,6.2,2.6
		c22.3,4.8,40.9,15.4,53.7,30.7c12.8,15.2,19.8,34.8,20.1,56.7c0.5,26-2.9,51.7-6.1,76.6c-1.7,13.4-3.5,27.2-4.6,40.6
		c-0.5,6.5,0.4,13.3,2.4,17.1c14.2,27.1,5.1,64.4-19.7,81.6c0,0-2.4,1.8-5.9,9c-3.6,7.5-6.8,15.3-10.1,23.5
		c-6.3,15.3-12.8,31.2-22.2,46c-5.7,8.9-8.2,31.3-2,56.9c2.5,10.3,6.1,19.8,10.4,27.6c-0.4-1.5-0.8-3.1-1.2-4.6
		c-6.8-28.2-4-52.9,2.2-62.7c10.4-16.4,17.6-33.9,24.5-50.8c3.7-9.1,7.3-17.7,11.2-25.9c3.8-8,6.5-9.9,6.5-9.9
		c27.5-18.9,37.4-60.1,21.8-90c-2.2-4.1-3.2-11.7-2.6-18.8c1.2-14.7,3.2-30,5.1-44.8c3.6-27.4,7.2-55.8,6.7-84.5
		c-0.4-24.1-8.1-45.7-22.2-62.5c-14.2-16.9-34.7-28.6-59.3-33.9c-3.4-0.7-6-2.1-6.9-2.9c-55.7-46.6-116-34.4-172.9-14.3
		c-53.3,18.8-83.5,64.6-85.3,129c-0.6,23.7,2.4,46.8,5.3,69.2c1.9,14.1,3.6,27.5,4.5,40.8c0.2,2.8-1,7.8-2.2,12.6
		c-1.7,7-3.6,15-3.6,24c0,2.3,0,5-0.1,7.8c-0.4,23.8-0.9,50.7,19.8,61.2c7,3.6,8.5,7.3,11.9,21.6c1.4,5.8,3,12.4,5.6,19.1l0.1,0.3
		c5.5,13.9,11.7,29.7,21.8,43.6c13.8,18.7,18.6,45.7,13,72c-0.2,0.8-0.4,1.5-0.5,2.3c4.3-7.5,7.6-16,9.6-25.3
		C417.3,640.7,412.9,616.3,400.4,599.3z"/>
	<path class="st0" d="M206.1,819.2L180,832.7l27.2,24.2c76.5,67.8,175,106.8,277.3,109.9c4.3,0.1,8.6,0.2,12.9,0.2
		c48.8,0,97.1-8.1,143.9-24.2c53.7-18.5,104.4-47.2,150.7-85.3l29.6-24.3l-27.7-14c-77.3,71.3-180.6,114.8-294,114.8
		C386.6,933.9,283.4,890.4,206.1,819.2z"/>
</g>
</svg>
