<?xml version="1.0" encoding="utf-8"?>
<!-- Generator: Adobe Illustrator 22.1.0, SVG Export Plug-In . SVG Version: 6.00 Build 0)  -->
<svg version="1.1" id="Layer_1" xmlns="http://www.w3.org/2000/svg" xmlns:xlink="http://www.w3.org/1999/xlink" x="0px" y="0px"
	 viewBox="0 0 1079.4 1004.9" style="enable-background:new 0 0 1079.4 1004.9;" xml:space="preserve">
<style type="text/css">
	.st0{fill:#B3CFFB;}
	.st1{fill:#5689EF;}
</style>
<g>
	<g transform="translate(0.000000,511.000000) scale(0.100000,-0.100000)">
		<g>
			<path class="st0" d="M3696,1049.5c-206.6,0-518,30.6-688.1,87.3l-1.2,0.4c-609.2,207.8-1085.1,705.1-1272.9,1330.3
				c-84.4,280.3-79.2,782.5,11.1,1074.6c108.9,348.3,305.6,657.5,568.9,895c264,238,590.1,399.5,943,466.9
				c106.5,20.5,218.2,30.9,331.8,30.9c306.4,0,621.2-74.7,910.4-216.1c328.3-159.7,685.1-521.2,848.2-859.3l0.8-1.8
				c44.1-94,122.1-276.1,136.8-365.2c10-58.1,26.1-154.6-52.8-239.9c-43.8-47.3-99.5-73.5-210.4-125.8
				c-265.4-126.3-521-366.1-719-674.8c-200.1-312.2-324.8-669.3-350.9-1005.6l-26.4-343l-223.6-39.5
				C3849.3,1054.4,3780,1049.5,3696,1049.5C3696,1049.5,3696,1049.5,3696,1049.5z"/>
			<path class="st1" d="M3588.7,4760c277,0,566.7-67.9,833.5-198.3c295.8-143.9,620.9-474.3,767.4-778.1
				c58.7-125.3,114.6-269.2,122.6-319.8c16-93.2,16-93.2-165.2-178.5c-610.2-290.4-1111.2-1071.1-1169.8-1825.2l-16-207.8l-90.6-16
				c-43.6-8.1-104.7-11.7-174.7-11.7c-208.2,0-495.1,32.4-632.7,78.3c-554.3,189.1-991.3,647.5-1161.8,1215
				c-74.6,247.8-69.2,714.1,10.7,972.6C2114.6,4138,2634.2,4607,3289.7,4732.2C3386.5,4750.8,3486.7,4760,3588.7,4760 M3588.7,5110
				c-124.5,0-247.2-11.5-364.6-34v0c-384.4-73.4-739.6-249.4-1027.4-508.8c-286.6-258.4-500.5-594.6-618.6-972.2l-0.2-0.6l-0.2-0.6
				c-100.4-324.9-105.7-863.9-11.5-1176.9c99.5-331.1,279-639,519.1-890.3c241.1-252.4,540.2-444.3,864.9-555.1l1.2-0.4l1.2-0.4
				c189.6-63.2,517.5-96.3,743.4-96.3c95.6,0,173,5.6,236.6,17.2l89.6,15.8l267.3,47.2l20.8,270.6l16,207.8
				c23.9,307.8,138.9,636.2,323.7,924.4c180.4,281.4,410.2,498.5,647,611.3c122.7,57.7,196.8,92.7,263.6,164.8
				c137.3,148.4,109.3,315.7,96.9,388.2c-21.3,127.3-120.6,345.7-150.8,410.1l-0.8,1.8l-0.9,1.8
				c-181.2,375.8-563.4,762.6-929.4,940.7C4262.7,5029.2,3921.5,5110,3588.7,5110L3588.7,5110z"/>
		</g>
		<g>
			<path class="st0" d="M6652-1245.7c-200.2,0-392,22-554.6,63.7c-426.8,109.9-815,330.2-1122.7,637.1
				C4666.8-237.8,4444,151.7,4330.3,581.4c-88.3,329.8-88.3,849.2,0,1182.2c115.1,440.7,347.5,838.3,671.9,1149.2
				c323.4,310,731.4,527.3,1180,628.6l2.4,0.5c106.9,22.6,327.1,41,491.2,41.2c5.9,0,11.8,0.1,17.7,0.1
				c557.6,0,1100.6-194.1,1528.9-546.6c428.1-352.3,725.4-849.6,837.1-1400.2c63.9-319.5,44.8-810.9-43.2-1119.4
				c-200.6-693.8-714.1-1282.3-1373.6-1574.8C7371.3-1177.3,7010.4-1245.7,6652-1245.7C6652-1245.7,6652.1-1245.7,6652-1245.7z"/>
			<path class="st1" d="M6693.5,3408.1c1069.1,0,1979.9-749.1,2194.6-1806.7c58.6-293.1,39.9-756.7-40-1036.5
				C8661.5-79.9,8184.6-626.1,7571.7-897.9c-256-112.7-596.2-172.8-919.7-172.8c-181.6,0-358,19-511.2,58.2
				C5333.4-804.7,4715.2-189.2,4499.4,626.2c-79.9,298.5-79.9,791.4,0,1092.5c218.5,836.6,871.3,1460.1,1721.3,1652
				c88,18.6,293.2,37.3,455.7,37.4C6682.2,3408.1,6687.8,3408.1,6693.5,3408.1 M6693.5,3758.1c-6.2,0-12.3,0-18.4-0.1
				c-177.1-0.2-408.2-19.9-526.7-45l-2.4-0.5l-2.3-0.5c-479.6-108.3-916.2-341-1262.6-673c-347.6-333.2-596.6-759-720.1-1231.3
				c-94.8-357.9-94.7-915.8,0.1-1271.2l0,0c121.6-459.6,360.2-876.5,690-1205.4c329.8-329,745.6-565.1,1202.5-682.7
				c177-45.3,383.8-69.3,598.4-69.3c381.7,0,768.3,73.8,1060.7,202.5l0.5,0.2l0.5,0.2c347.2,153.9,665.2,389.6,919.9,681.4
				c254.7,291.9,445.2,639.2,550.8,1004.3l0.2,0.6l0.2,0.6c96.2,336.8,116.2,853.2,46.7,1201.2l-0.1,0.5l-0.1,0.5
				c-60.7,299.1-170.6,581.6-326.6,839.8c-152.2,251.9-344.3,474.2-570.9,660.7c-226.8,186.6-481.5,332-757,431.9
				C7293.9,3706.1,6996.8,3758.1,6693.5,3758.1L6693.5,3758.1z"/>
		</g>
		<g>
			<path class="st0" d="M849.8-1028.7c-117.6,0-250.8,0-330.7,102.9c-79.6,102.5-50.5,215.9-6.6,387.6c6.9,26.9,14.5,56.5,22.5,89
				c72.5,306.3,230.9,698.9,385.2,955.1c237.8,396.3,565.2,738.3,946.6,988.6L2156,1683l235.9-212.8
				c360.2-323.4,760.1-480.8,1222.3-480.7c90.9,0,186.1,6.1,282.8,18.1l331.2,40.1l124.4-516.6c33.9-142.5,53.8-238.9,62.9-304
				c6-42.9,7.7-75.9,5.6-104c-9.6-126.1-99.7-167-128.9-177c-76.7-30.6-410.2-281.3-592.6-466.1l-348.4-348.4L2503.7-21
				l-417.2-417.1l-589.5-589.6h-466.9c-38.7,0-73.8-0.3-105.7-0.5C897.4-1028.5,872.5-1028.7,849.8-1028.7z"/>
			<path class="st1" d="M2138.7,1462.9l135.9-122.6c392.7-352.6,830.4-525.8,1339.5-525.8c98.7,0,200.2,6.5,304.5,19.5l175.9,21.3
				l87.9-365.1c64-269.2,77.3-370.4,53.3-378.4c-103.9-34.6-471.6-317.1-660.8-508.9l-223.8-223.8l-423.7,423.7l-423.7,423.7
				l-540.9-540.9l-538.2-538.3h-394.4c-71.7,0-131.3-0.9-180.5-0.9c-263.5,0-227.7,26.5-144.6,363.3
				c69.3,293.1,223.8,671.5,365,905.9c223.9,373.1,535.6,698.2,892.7,932.6L2138.7,1462.9 M2173.2,1903.2L1947.6,1756l-175.9-114.7
				l-0.4-0.3l-0.4-0.3C1367.6,1376.1,1021.7,1014.9,770.2,596c-162.5-269.8-329-682.3-405.3-1004c-7.7-31.3-14.9-59.4-21.9-86.7
				c-19.5-76.3-35-136.5-43-194.3c-18.7-135.1,8.5-250.8,80.8-344c132.4-170.6,334.9-170.6,468.9-170.6c23.1,0,48.4,0.2,76.1,0.4
				c31.2,0.2,66.5,0.5,104.3,0.5h394.4h145l102.5,102.5l538.2,538.3l293.4,293.4L2680-444.7l423.7-423.7l247.5-247.5l247.5,247.5
				l223.8,223.8l0.8,0.8l0.8,0.8c167.5,169.8,456.5,386.5,535.7,427.4c134.4,50.6,224.2,174,235.7,325.4c3.1,40.8,1,85.7-6.8,141.3
				c-10,71.7-30.3,170.4-65.8,320l-0.1,0.5l-0.1,0.5l-87.9,365.1l-73,303l-309.4-37.5l-175.9-21.3l-0.6-0.1l-0.6-0.1
				c-89.7-11.2-177.6-16.8-261.2-16.8c-211.9,0-403.3,34.8-585.3,106.4c-183.1,72-353.1,179.7-519.9,329.4l-135.8,122.5
				L2173.2,1903.2L2173.2,1903.2z"/>
		</g>
		<g>
			<path class="st0" d="M3989.8-4499.2l-3.1,0.7c-62.8,13.2-228.6,58.9-362,99.9c-1089.2,341.4-1773.2,1034.8-2034,2061.3
				l-39.4,154.7l-292.1,9.2L421.9-2147l1057.5,1012.9c211.2,203.1,401.9,385.7,536.7,514c71.5,68.1,127.4,121,166.2,157.4
				c81.4,76.2,111.8,104.7,183,104.7c70.2,0,106.3-33.4,160.8-84.1c25.2-23.3,61.7-57.6,111.6-104.8
				c93.9-88.7,224.9-213.1,376.5-357.1c75.3-71.5,155.7-147.9,239-226.9l1066.6-1021.7l-870.6-15.7l-261.9-3.1l5.5-96.4
				c32.9-517.2,164.6-942.1,402.6-1299.1c121-181.5,380.4-456.4,544.2-576.9l678.4-497.6L3989.8-4499.2z"/>
			<path class="st1" d="M2365.2-532.9c5.3,0,349.1-327.8,767.4-724.8l759.4-727.4l-445-8l-445-5.3l16-279.8
				c34.7-546.3,175.9-1001.9,431.7-1385.6c133.2-199.8,405-487.6,586.2-620.8l79.9-58.6l-93.3,16c-50.6,10.6-207.8,53.3-346.4,95.9
				c-1028.5,322.4-1670.7,972.5-1915.8,1937.1l-71.9,282.4l-423.7,13.3l-421,13.3l756.7,724.8
				C2016.1-860.7,2359.8-532.9,2365.2-532.9 M2365.2-182.9c-136.2,0-217.8-74.1-252.7-105.8c-12-10.9-28.3-26-49.9-46.2
				c-39.2-36.7-95.5-90-167.3-158.3c-135-128.5-325.7-311.2-537.1-514.4l-756.7-724.8L0-2308.8l832.7-26.3l421-13.3l160.6-5
				l6.9-27.2c137.5-541.2,391.4-1001.9,754.4-1369.1c359.4-363.5,829.1-637.9,1395.9-815.6l0.9-0.3l0.9-0.3
				c139.9-43,309.2-89.6,377.5-103.9l6.3-1.3l6.3-1.1l93.3-16l1463.5-251L4322.8-4061l-79.9,58.6c-147.9,108.7-392,367.7-502,532.7
				c-207.1,310.6-327.5,679.6-366.9,1125.7l77.2,0.9l1.1,0l1.1,0l445,8l849.1,15.3l-613.3,587.4L3374.7-1005l-0.6,0.6l-0.6,0.6
				c-83.2,79-163.5,155.2-238.7,226.7c-151.8,144.2-282.9,268.7-377,357.6c-50.3,47.5-87.2,82.1-112.7,105.8
				c-14.9,13.9-26.4,24.3-34.9,32C2582.9-257.3,2499.8-182.9,2365.2-182.9L2365.2-182.9z"/>
		</g>
		<g>
			<path class="st0" d="M4800.6-4518.3l-256,181.4c-541.8,388.2-746,597.9-950.6,976.1c-121.7,225.8-241.2,600.3-272.7,854
				l-52.8,363.5h919.1c125.1,0,234.7,0.8,327.5,2.1c-56.7,58.1-121.6,123.8-192.7,194.9l-589.2,589.2l313.5,268.7
				c100.8,83.6,292.2,221.7,427,308c279.4,182.5,299.6,182.5,348.3,182.5c64.1,0,116.7-25,258.8-173
				c244.7-249.4,652.4-477.6,1039-581.7c132.7-35.3,358.1-57.3,587.8-57.3c195.3,0,370.9,15.4,481.7,42.4
				c390.4,97.1,720.4,270.5,1037.8,545.8l313.8,270.6l369-243.4c1131.5-748.8,1706.5-1868.2,1709.3-3327.2v-396.5H4800.6z"/>
			<path class="st1" d="M8554.9-770.1l258.5-170.5c1079.1-714.1,1628-1782.6,1630.7-3181.5v-221.2H7648.8H4856.3l-210.5,149.2
				c-516.9,370.4-706.1,562.2-897.9,916.6c-109.2,202.5-223.8,554.2-253.1,794l-24,165.2h716.8c391.7,0,714.1,8,714.1,18.7
				c0,10.7-205.1,226.5-455.6,477L3990.5-1367l167.9,143.9c93.2,77.3,277.1,210.5,410.3,295.8c130.6,85.3,245.2,154.4,253.2,154.4
				c8,0,69.3-53.3,133.2-119.9c266.4-271.8,703.4-516.9,1119.1-628.8c157.1-41.8,399.1-63.3,633.3-63.3
				c198.9,0,392.2,15.5,523.1,47.3c418.3,104,770,287.8,1111.1,583.6L8554.9-770.1 M8526.7-332.3l-200.4-172.9L8113.1-689l-0.4-0.3
				l-0.3-0.3c-299.5-259.8-597.3-416.5-965.4-508.1c-96.6-23.3-260.7-37.2-439.5-37.2c-215.5,0-423.6,19.7-543.1,51.5
				c-352.6,95.1-737.3,309.7-958.3,534.5c-35.3,36.7-72.8,73-105.9,102.5c-48.5,43.2-138.8,123.6-278.4,123.6
				c-104.2,0-170.6-40.3-262.4-96.1c-52.8-32.1-117-72.7-180.9-114.4C4236.6-724.5,4042-865,3935-953.7l-2.2-1.8l-2.1-1.8
				l-167.9-143.9l-287-246l267.3-267.3l353.8-353.8h-626h-404.5l58.2-400.3l23.5-161.5c34.6-276.5,159.7-668.3,291.9-913.5l0.1-0.2
				l0.1-0.2c117-216.2,232.2-375,385-530.8c144.6-147.4,323.3-293.4,616.9-503.7l0.7-0.5l0.7-0.5l210.5-149.2l90.9-64.5h111.5
				h2792.5h2795.3h350v350v221.2v0.3v0.3c-1.5,751.7-152.9,1426.8-450.3,2006.6c-299.4,583.7-749.3,1077-1337.3,1466.1l-0.2,0.1
				l-0.2,0.1L8747.6-478L8526.7-332.3L8526.7-332.3z"/>
		</g>
	</g>
</g>
</svg>
