<?xml version="1.0" encoding="utf-8"?>
<!-- Generator: Adobe Illustrator 22.1.0, SVG Export Plug-In . SVG Version: 6.00 Build 0)  -->
<svg version="1.1" id="Layer_1" xmlns="http://www.w3.org/2000/svg" xmlns:xlink="http://www.w3.org/1999/xlink" x="0px" y="0px"
	 viewBox="0 0 351.7 361.1" style="enable-background:new 0 0 351.7 361.1;" xml:space="preserve">
<style type="text/css">
	.st0{fill:#B3CFFB;}
	.st1{fill:#5689EF;}
</style>
<g>
	<path class="st0" d="M81.6,329.7h188.4v-157H81.6V329.7z M175.9,204.1c17.3,0,31.4,14.1,31.4,31.4c0,11.6-6.4,21.6-15.7,27v20.1
		c0,8.7-7,15.7-15.7,15.7c-8.7,0-15.7-7-15.7-15.7v-20.1c-9.3-5.4-15.7-15.5-15.7-27C144.5,218.2,158.5,204.1,175.9,204.1z"/>
	<path class="st0" d="M238.7,94.2c0-34.7-28.1-62.8-62.8-62.8c-34.7,0-62.8,28.1-62.8,62.8v47.1h125.6V94.2z"/>
	<path class="st1" d="M270.1,141.3V94.2c0-52-42.2-94.2-94.2-94.2c-52,0-94.2,42.2-94.2,94.2v47.1c-17.3,0-31.4,14.1-31.4,31.4v157
		c0,17.3,14.1,31.4,31.4,31.4h188.4c17.3,0,31.4-14.1,31.4-31.4v-157C301.5,155.4,287.4,141.3,270.1,141.3z M113,94.2
		c0-34.7,28.1-62.8,62.8-62.8c34.7,0,62.8,28.1,62.8,62.8v47.1H113V94.2z M270.1,329.7H81.6v-157h188.4V329.7z"/>
	<path class="st1" d="M160.2,262.6v20.1c0,8.7,7,15.7,15.7,15.7c8.7,0,15.7-7,15.7-15.7v-20.1c9.3-5.4,15.7-15.5,15.7-27
		c0-17.3-14.1-31.4-31.4-31.4c-17.3,0-31.4,14.1-31.4,31.4C144.5,247.1,150.8,257.1,160.2,262.6z"/>
</g>
</svg>
