<?xml version="1.0" encoding="utf-8"?>
<!-- Generator: Adobe Illustrator 22.1.0, SVG Export Plug-In . SVG Version: 6.00 Build 0)  -->
<svg version="1.1" id="Layer_1" xmlns="http://www.w3.org/2000/svg" xmlns:xlink="http://www.w3.org/1999/xlink" x="0px" y="0px"
	 viewBox="0 0 50 50" style="enable-background:new 0 0 50 50;" xml:space="preserve">
<style type="text/css">
	.st0{fill:#B3CFFB;}
	.st1{fill:#2C67F6;}
</style>
<title>Droplets</title>
<g>
	<polygon class="st0" points="6.8,30.4 24.4,41.2 24.4,32 6.8,21.4 	"/>
	<polygon class="st0" points="25.4,30.4 43.3,19.5 25.1,8.5 7.4,19.4 	"/>
	<polygon class="st0" points="26.3,41 43.7,30.4 43.7,21.5 26.3,32.2 	"/>
	<path class="st1" d="M5.3,19v12.2l19.8,12.2l20-12.2V18.9l-20-12.1L5.3,19z M24.4,41.2L6.8,30.4v-9L24.4,32V41.2z M43.7,30.4
		L26.3,41v-8.8l17.4-10.6V30.4z M43.3,19.5L25.4,30.4l-18-11L25.1,8.5L43.3,19.5z"/>
</g>
</svg>
